<?xml version="1.0" standalone="no"?>
<!DOCTYPE svg PUBLIC "-//W3C//DTD SVG 20010904//EN"
 "http://www.w3.org/TR/2001/REC-SVG-20010904/DTD/svg10.dtd">
<svg version="1.0" xmlns="http://www.w3.org/2000/svg"
 width="500.000000pt" height="500.000000pt" viewBox="0 0 500.000000 500.000000"
 preserveAspectRatio="xMidYMid meet">

<g transform="translate(0.000000,500.000000) scale(0.100000,-0.100000)"
fill="#000000" stroke="none">
<path d="M2789 3360 c-102 -17 -216 -107 -262 -208 -33 -70 -32 -227 2 -295
35 -71 101 -139 168 -172 51 -26 69 -29 148 -30 77 0 98 4 146 26 79 37 133
90 171 167 30 61 33 74 33 162 -1 86 -4 100 -32 155 -73 141 -224 220 -374
195z m166 -204 c99 -75 97 -230 -3 -299 -122 -85 -282 -1 -282 147 0 78 39
142 105 172 49 23 136 13 180 -20z"/>
<path d="M1930 3078 c0 -255 1 -274 21 -315 14 -30 35 -52 66 -70 40 -23 58
-26 164 -31 l119 -5 0 81 0 80 -85 3 c-126 6 -119 -9 -123 284 l-3 245 -80 0
-79 0 0 -272z"/>
<path d="M1590 2125 l0 -455 910 0 910 0 0 455 0 455 -910 0 -910 0 0 -455z
m620 338 c53 -14 160 -75 160 -91 0 -4 -26 -34 -59 -66 l-59 -58 -41 28 c-49
32 -129 43 -184 25 -73 -24 -126 -121 -113 -205 21 -126 136 -197 240 -146 44
21 86 65 86 90 0 8 -25 11 -82 9 l-83 -2 0 79 0 79 184 3 183 2 -4 -87 c-7
-152 -76 -266 -196 -325 -60 -30 -75 -33 -157 -33 -76 0 -98 4 -146 26 -80 38
-133 90 -174 171 -32 64 -35 79 -35 154 0 108 25 176 91 249 102 111 226 142
389 98z m840 -6 c39 -14 73 -38 116 -81 79 -79 104 -142 104 -260 0 -75 -3
-90 -35 -154 -41 -81 -94 -133 -174 -171 -76 -35 -211 -37 -284 -4 -159 73
-249 264 -203 429 62 214 267 318 476 241z"/>
<path d="M2845 2286 c-39 -18 -70 -52 -90 -98 -53 -129 53 -264 191 -243 49 7
105 49 130 96 35 69 7 184 -58 230 -39 28 -128 36 -173 15z"/>
</g>
</svg>
